<svg width="1264" height="437" viewBox="0 0 1264 437" fill="none" xmlns="http://www.w3.org/2000/svg">
<g filter="url(#filter0_d)">
<rect x="28" y="28" width="1208" height="381" rx="6" fill="white"/>
</g>
<path d="M102 301C124.043 277.734 168.128 231.202 218.092 229.207C268.056 227.213 340.062 251.144 392.965 249.15C476.727 245.992 539.917 169.38 617.801 161.403C695.685 153.427 772.1 209.265 849.985 209.265C927.869 209.265 1013.13 128 1066.03 128C1108.25 128 1127.27 134.481 1150 140.963" stroke="#3C57DE" stroke-linecap="square" stroke-linejoin="bevel"/>
<path d="M1150 301H101C114.576 289.408 145.528 265.262 167.249 253.53C194.4 238.865 230.156 240.511 249.602 241.768C269.049 243.025 339.098 257.731 375.512 257.731C438.466 257.731 479.653 233.959 517.078 216.78C554.503 199.601 579.086 184.517 627.885 182.422C676.684 180.327 735.197 200.138 759.046 207.261C782.895 214.384 826.118 224.542 855.383 222.6C906.743 219.191 937.659 200.287 955.797 193.2C1002.69 174.878 1028.93 154 1067.94 154C1106.94 154 1135.69 158.793 1150 165.078V301Z" fill="#1970F3" fill-opacity="0.04"/>
<path d="M1150 301H101C114.576 289.408 145.528 265.262 167.249 253.53C194.4 238.865 230.156 240.511 249.602 241.768C269.049 243.025 339.098 257.731 375.512 257.731C438.466 257.731 479.653 233.959 517.078 216.78C554.503 199.601 579.086 184.517 627.885 182.422C676.684 180.327 735.197 200.138 759.046 207.261C782.895 214.384 826.118 224.542 855.383 222.6C906.743 219.191 937.659 200.287 955.797 193.2C1002.69 174.878 1028.93 154 1067.94 154C1106.94 154 1135.69 158.793 1150 165.078V301Z" fill="url(#paint0_linear)"/>
<rect x="149" y="54" width="98" height="21" rx="10.5" fill="white"/>
<rect x="149.5" y="54.5" width="97" height="20" rx="10" stroke="#122737" stroke-opacity="0.116"/>
<path d="M169.028 60.6H165.932V69H167.312V66.12H169.028C169.82 66.12 170.48 65.856 171.008 65.328C171.536 64.8 171.812 64.14 171.812 63.36C171.812 62.58 171.536 61.92 171.008 61.392C170.48 60.864 169.82 60.6 169.028 60.6ZM169.028 64.824H167.312V61.896H169.028C169.436 61.896 169.772 62.04 170.036 62.316C170.3 62.592 170.432 62.94 170.432 63.36C170.432 63.792 170.3 64.14 170.036 64.416C169.772 64.692 169.436 64.824 169.028 64.824ZM177.79 63V63.852C177.298 63.18 176.602 62.844 175.69 62.844C174.862 62.844 174.154 63.156 173.578 63.756C172.99 64.368 172.702 65.112 172.702 66C172.702 66.888 172.99 67.632 173.578 68.244C174.154 68.856 174.862 69.156 175.69 69.156C176.602 69.156 177.298 68.82 177.79 68.136V69H179.086V63H177.79ZM175.894 67.92C175.342 67.92 174.898 67.74 174.538 67.38C174.178 67.02 173.998 66.552 173.998 66C173.998 65.448 174.178 64.992 174.538 64.632C174.898 64.272 175.342 64.08 175.894 64.08C176.434 64.08 176.89 64.272 177.25 64.632C177.61 64.992 177.79 65.448 177.79 66C177.79 66.552 177.61 67.02 177.25 67.38C176.89 67.74 176.434 67.92 175.894 67.92ZM185.906 63V63.888C185.414 63.192 184.718 62.844 183.818 62.844C182.966 62.844 182.246 63.156 181.67 63.756C181.082 64.356 180.794 65.088 180.794 65.94C180.794 66.804 181.082 67.536 181.67 68.136C182.246 68.736 182.966 69.036 183.818 69.036C184.718 69.036 185.414 68.688 185.906 67.992V68.724C185.906 69.252 185.738 69.66 185.426 69.948C185.114 70.236 184.67 70.38 184.118 70.38C183.254 70.38 182.678 70.08 182.366 69.456L181.25 70.104C181.754 71.076 182.702 71.556 184.094 71.556C184.946 71.556 185.678 71.316 186.278 70.824C186.878 70.344 187.178 69.636 187.178 68.724V63H185.906ZM183.998 67.824C183.446 67.824 182.99 67.644 182.63 67.284C182.27 66.924 182.09 66.48 182.09 65.94C182.09 65.412 182.27 64.956 182.63 64.596C182.99 64.236 183.446 64.056 183.998 64.056C184.538 64.056 184.994 64.236 185.354 64.596C185.714 64.956 185.906 65.412 185.906 65.94C185.906 66.48 185.714 66.924 185.354 67.284C184.994 67.644 184.538 67.824 183.998 67.824ZM190.242 66.552H195.018C195.042 66.336 195.066 66.156 195.066 66.012C195.066 65.136 194.778 64.392 194.214 63.768C193.65 63.156 192.93 62.844 192.054 62.844C191.118 62.844 190.362 63.156 189.774 63.756C189.174 64.356 188.886 65.112 188.886 66C188.886 66.912 189.186 67.668 189.786 68.268C190.386 68.868 191.166 69.156 192.15 69.156C193.302 69.156 194.178 68.724 194.778 67.848L193.71 67.224C193.362 67.728 192.846 67.968 192.162 67.968C191.658 67.968 191.238 67.848 190.902 67.608C190.554 67.368 190.338 67.008 190.242 66.552ZM190.23 65.496C190.314 65.04 190.518 64.68 190.842 64.416C191.154 64.152 191.562 64.02 192.042 64.02C192.462 64.02 192.834 64.152 193.146 64.392C193.458 64.644 193.662 65.016 193.758 65.496H190.23ZM204.341 63L202.673 67.56L200.993 63H199.577L201.917 69H203.417L205.757 63H204.341ZM207.759 62.1C207.975 62.1 208.167 62.028 208.335 61.86C208.503 61.692 208.587 61.5 208.587 61.272C208.587 61.056 208.503 60.864 208.347 60.696C208.179 60.528 207.987 60.444 207.759 60.444C207.519 60.444 207.327 60.528 207.171 60.696C207.003 60.864 206.931 61.056 206.931 61.272C206.931 61.5 207.003 61.692 207.171 61.86C207.339 62.028 207.531 62.1 207.759 62.1ZM207.111 69H208.407V63H207.111V69ZM211.465 66.552H216.241C216.265 66.336 216.289 66.156 216.289 66.012C216.289 65.136 216.001 64.392 215.437 63.768C214.873 63.156 214.153 62.844 213.277 62.844C212.341 62.844 211.585 63.156 210.997 63.756C210.397 64.356 210.109 65.112 210.109 66C210.109 66.912 210.409 67.668 211.009 68.268C211.609 68.868 212.389 69.156 213.373 69.156C214.525 69.156 215.401 68.724 216.001 67.848L214.933 67.224C214.585 67.728 214.069 67.968 213.385 67.968C212.881 67.968 212.461 67.848 212.125 67.608C211.777 67.368 211.561 67.008 211.465 66.552ZM211.453 65.496C211.537 65.04 211.741 64.68 212.065 64.416C212.377 64.152 212.785 64.02 213.265 64.02C213.685 64.02 214.057 64.152 214.369 64.392C214.681 64.644 214.885 65.016 214.981 65.496H211.453ZM224.64 63L223.464 67.14L222.216 63H220.98L219.72 67.14L218.556 63H217.188L219.072 69H220.344L221.604 64.956L222.852 69H224.124L226.008 63H224.64ZM228.297 64.656C228.297 64.452 228.381 64.296 228.549 64.188C228.717 64.08 228.921 64.02 229.173 64.02C229.713 64.02 230.085 64.248 230.301 64.704L231.393 64.092C231.177 63.708 230.877 63.396 230.493 63.18C230.109 62.964 229.665 62.844 229.173 62.844C228.549 62.844 228.021 63.012 227.601 63.348C227.181 63.684 226.977 64.128 226.977 64.68C226.977 65.088 227.085 65.412 227.301 65.676C227.517 65.94 227.793 66.12 228.117 66.228C228.429 66.348 228.753 66.444 229.065 66.528C229.377 66.612 229.653 66.708 229.869 66.828C230.085 66.948 230.205 67.104 230.205 67.296C230.205 67.752 229.857 67.968 229.185 67.968C228.501 67.968 228.057 67.68 227.853 67.104L226.737 67.752C226.929 68.196 227.229 68.544 227.661 68.784C228.081 69.036 228.585 69.156 229.185 69.156C229.857 69.156 230.409 69 230.853 68.664C231.297 68.34 231.525 67.884 231.525 67.308C231.525 66.9 231.405 66.564 231.189 66.3C230.973 66.036 230.697 65.844 230.385 65.724C230.061 65.616 229.737 65.52 229.425 65.436C229.113 65.352 228.837 65.256 228.621 65.136C228.405 65.016 228.297 64.86 228.297 64.656Z" fill="#122737"/>
<rect x="262" y="54" width="99" height="21" rx="10.5" fill="white"/>
<rect x="262.5" y="54.5" width="98" height="20" rx="10" stroke="#122737" stroke-opacity="0.116"/>
<path d="M280.985 64.644C281.549 64.236 281.837 63.66 281.837 62.928C281.837 62.268 281.597 61.716 281.117 61.272C280.637 60.828 280.061 60.6 279.377 60.6H276.041V69H279.641C280.337 69 280.937 68.772 281.429 68.316C281.909 67.86 282.161 67.296 282.161 66.6C282.161 66.168 282.053 65.772 281.849 65.436C281.633 65.1 281.345 64.836 280.985 64.644ZM279.377 61.896C279.677 61.896 279.929 62.004 280.145 62.22C280.349 62.436 280.457 62.688 280.457 63C280.457 63.312 280.349 63.576 280.145 63.792C279.929 64.008 279.677 64.104 279.377 64.104H277.421V61.896H279.377ZM279.641 67.704H277.421V65.352H279.641C279.953 65.352 280.229 65.472 280.445 65.7C280.661 65.928 280.781 66.204 280.781 66.528C280.781 66.864 280.661 67.14 280.445 67.368C280.229 67.596 279.953 67.704 279.641 67.704ZM286.705 69.156C287.593 69.156 288.337 68.856 288.949 68.244C289.561 67.644 289.873 66.888 289.873 66C289.873 65.112 289.561 64.368 288.949 63.756C288.337 63.156 287.593 62.844 286.705 62.844C285.817 62.844 285.073 63.156 284.461 63.756C283.837 64.368 283.537 65.112 283.537 66C283.537 66.888 283.837 67.644 284.461 68.244C285.073 68.856 285.817 69.156 286.705 69.156ZM286.705 67.896C286.177 67.896 285.733 67.716 285.373 67.356C285.013 66.996 284.833 66.552 284.833 66C284.833 65.46 285.013 65.004 285.373 64.644C285.733 64.284 286.177 64.104 286.705 64.104C287.233 64.104 287.677 64.284 288.037 64.644C288.397 65.004 288.577 65.46 288.577 66C288.577 66.552 288.397 66.996 288.037 67.356C287.677 67.716 287.233 67.896 286.705 67.896ZM295.622 63V66.216C295.622 66.804 295.478 67.236 295.202 67.524C294.914 67.812 294.554 67.944 294.098 67.944C293.678 67.944 293.354 67.824 293.114 67.584C292.874 67.344 292.754 67.008 292.754 66.552V63H291.458V66.684C291.458 67.452 291.662 68.064 292.094 68.496C292.514 68.94 293.066 69.156 293.762 69.156C294.602 69.156 295.226 68.856 295.622 68.232V69H296.918V63H295.622ZM302.123 62.844C301.271 62.844 300.647 63.156 300.263 63.768V63H298.967V69H300.263V65.784C300.263 65.208 300.395 64.776 300.683 64.488C300.959 64.2 301.331 64.056 301.787 64.056C302.195 64.056 302.531 64.176 302.771 64.416C303.011 64.656 303.131 65.004 303.131 65.448V69H304.427V65.316C304.427 64.548 304.211 63.948 303.791 63.504C303.359 63.072 302.807 62.844 302.123 62.844ZM309.187 69.156C309.763 69.156 310.303 69.024 310.783 68.736C311.263 68.46 311.623 68.076 311.887 67.596L310.771 66.96C310.627 67.248 310.411 67.464 310.123 67.632C309.835 67.8 309.523 67.884 309.175 67.884C308.647 67.884 308.203 67.704 307.843 67.344C307.483 66.984 307.315 66.54 307.315 66C307.315 65.472 307.483 65.016 307.843 64.656C308.203 64.296 308.647 64.116 309.175 64.116C309.535 64.116 309.847 64.2 310.123 64.368C310.399 64.536 310.603 64.752 310.747 65.04L311.863 64.392C311.623 63.924 311.263 63.552 310.783 63.264C310.303 62.988 309.763 62.844 309.187 62.844C308.275 62.844 307.519 63.156 306.919 63.756C306.319 64.356 306.019 65.112 306.019 66C306.019 66.888 306.319 67.644 306.919 68.244C307.519 68.856 308.275 69.156 309.187 69.156ZM314.284 66.552H319.06C319.084 66.336 319.108 66.156 319.108 66.012C319.108 65.136 318.82 64.392 318.256 63.768C317.692 63.156 316.972 62.844 316.096 62.844C315.16 62.844 314.404 63.156 313.816 63.756C313.216 64.356 312.928 65.112 312.928 66C312.928 66.912 313.228 67.668 313.828 68.268C314.428 68.868 315.208 69.156 316.192 69.156C317.344 69.156 318.22 68.724 318.82 67.848L317.752 67.224C317.404 67.728 316.888 67.968 316.204 67.968C315.7 67.968 315.28 67.848 314.944 67.608C314.596 67.368 314.38 67.008 314.284 66.552ZM314.272 65.496C314.356 65.04 314.56 64.68 314.884 64.416C315.196 64.152 315.604 64.02 316.084 64.02C316.504 64.02 316.876 64.152 317.188 64.392C317.5 64.644 317.704 65.016 317.8 65.496H314.272ZM325.611 64.008V63H324.315V69H325.611V65.976C325.611 65.364 325.791 64.92 326.163 64.656C326.523 64.392 326.955 64.272 327.459 64.296V62.892C326.547 62.892 325.935 63.264 325.611 64.008ZM333.42 63V63.852C332.928 63.18 332.232 62.844 331.32 62.844C330.492 62.844 329.784 63.156 329.208 63.756C328.62 64.368 328.332 65.112 328.332 66C328.332 66.888 328.62 67.632 329.208 68.244C329.784 68.856 330.492 69.156 331.32 69.156C332.232 69.156 332.928 68.82 333.42 68.136V69H334.716V63H333.42ZM331.524 67.92C330.972 67.92 330.528 67.74 330.168 67.38C329.808 67.02 329.628 66.552 329.628 66C329.628 65.448 329.808 64.992 330.168 64.632C330.528 64.272 330.972 64.08 331.524 64.08C332.064 64.08 332.52 64.272 332.88 64.632C333.24 64.992 333.42 65.448 333.42 66C333.42 66.552 333.24 67.02 332.88 67.38C332.52 67.74 332.064 67.92 331.524 67.92ZM340.108 64.248V63H338.62V61.32L337.324 61.704V63H336.22V64.248H337.324V67.128C337.324 67.92 337.54 68.46 337.972 68.748C338.404 69.036 339.112 69.12 340.108 69V67.836C339.772 67.86 339.496 67.86 339.28 67.848C339.064 67.836 338.896 67.776 338.788 67.668C338.668 67.56 338.62 67.38 338.62 67.128V64.248H340.108ZM342.591 66.552H347.367C347.391 66.336 347.415 66.156 347.415 66.012C347.415 65.136 347.127 64.392 346.563 63.768C345.999 63.156 345.279 62.844 344.403 62.844C343.467 62.844 342.711 63.156 342.123 63.756C341.523 64.356 341.235 65.112 341.235 66C341.235 66.912 341.535 67.668 342.135 68.268C342.735 68.868 343.515 69.156 344.499 69.156C345.651 69.156 346.527 68.724 347.127 67.848L346.059 67.224C345.711 67.728 345.195 67.968 344.511 67.968C344.007 67.968 343.587 67.848 343.251 67.608C342.903 67.368 342.687 67.008 342.591 66.552ZM342.579 65.496C342.663 65.04 342.867 64.68 343.191 64.416C343.503 64.152 343.911 64.02 344.391 64.02C344.811 64.02 345.183 64.152 345.495 64.392C345.807 64.644 346.011 65.016 346.107 65.496H342.579Z" fill="#122737"/>
<path d="M1204.76 124.204H1203.8V122.02H1202.4V124.204H1199.78L1202.67 118.6H1201.17L1198.28 124.204V125.488H1202.4V127H1203.8V125.488H1204.76V124.204ZM1211.55 127L1208.82 123.94L1211.46 121H1209.87L1207.55 123.652V118.6H1206.25V127H1207.55V124.228L1210.01 127H1211.55Z" fill="#122737" fill-opacity="0.3"/>
<path d="M1202.01 181.032L1203.71 178.776V177.6H1198.55V178.896H1202.07L1200.26 181.284L1200.81 182.112H1201.12C1201.6 182.112 1201.97 182.232 1202.26 182.472C1202.54 182.712 1202.68 183.048 1202.68 183.456C1202.68 183.876 1202.54 184.212 1202.26 184.452C1201.97 184.692 1201.6 184.812 1201.12 184.812C1200.27 184.812 1199.72 184.452 1199.48 183.732L1198.3 184.416C1198.52 184.992 1198.89 185.424 1199.39 185.712C1199.9 186.012 1200.47 186.156 1201.12 186.156C1201.94 186.156 1202.63 185.916 1203.21 185.436C1203.77 184.956 1204.06 184.296 1204.06 183.456C1204.06 182.832 1203.87 182.304 1203.48 181.884C1203.1 181.464 1202.61 181.176 1202.01 181.032ZM1211.07 186L1208.34 182.94L1210.98 180H1209.39L1207.07 182.652V177.6H1205.77V186H1207.07V183.228L1209.53 186H1211.07Z" fill="#122737" fill-opacity="0.3"/>
<path d="M236.698 318.6L234.49 319.38L234.826 320.556L236.518 320.076V327H237.898V318.6H236.698ZM243.112 327.156C244.144 327.156 244.96 326.76 245.536 325.968C246.112 325.176 246.412 324.12 246.412 322.8C246.412 321.48 246.112 320.424 245.536 319.632C244.96 318.84 244.144 318.444 243.112 318.444C242.068 318.444 241.252 318.84 240.676 319.632C240.1 320.424 239.812 321.48 239.812 322.8C239.812 324.12 240.1 325.176 240.676 325.968C241.252 326.76 242.068 327.156 243.112 327.156ZM243.112 325.812C242.488 325.812 242.02 325.56 241.684 325.032C241.348 324.516 241.192 323.772 241.192 322.8C241.192 321.84 241.348 321.096 241.684 320.568C242.02 320.052 242.488 319.788 243.112 319.788C243.736 319.788 244.204 320.052 244.54 320.568C244.864 321.096 245.032 321.84 245.032 322.8C245.032 323.772 244.864 324.516 244.54 325.032C244.204 325.56 243.736 325.812 243.112 325.812ZM248.96 322.644C249.2 322.644 249.416 322.56 249.596 322.38C249.764 322.212 249.86 321.996 249.86 321.744C249.86 321.504 249.764 321.288 249.596 321.108C249.416 320.94 249.2 320.844 248.96 320.844C248.696 320.844 248.48 320.94 248.312 321.108C248.144 321.276 248.06 321.492 248.06 321.744C248.06 321.996 248.144 322.212 248.324 322.38C248.492 322.56 248.708 322.644 248.96 322.644ZM248.96 327.144C249.2 327.144 249.416 327.06 249.596 326.88C249.764 326.712 249.86 326.496 249.86 326.244C249.86 326.004 249.764 325.788 249.596 325.608C249.416 325.44 249.2 325.344 248.96 325.344C248.696 325.344 248.48 325.44 248.312 325.608C248.144 325.788 248.06 326.004 248.06 326.244C248.06 326.496 248.144 326.712 248.324 326.88C248.492 327.06 248.708 327.144 248.96 327.144ZM254.796 327.156C255.828 327.156 256.644 326.76 257.22 325.968C257.796 325.176 258.096 324.12 258.096 322.8C258.096 321.48 257.796 320.424 257.22 319.632C256.644 318.84 255.828 318.444 254.796 318.444C253.752 318.444 252.936 318.84 252.36 319.632C251.784 320.424 251.496 321.48 251.496 322.8C251.496 324.12 251.784 325.176 252.36 325.968C252.936 326.76 253.752 327.156 254.796 327.156ZM254.796 325.812C254.172 325.812 253.704 325.56 253.368 325.032C253.032 324.516 252.876 323.772 252.876 322.8C252.876 321.84 253.032 321.096 253.368 320.568C253.704 320.052 254.172 319.788 254.796 319.788C255.42 319.788 255.888 320.052 256.224 320.568C256.548 321.096 256.716 321.84 256.716 322.8C256.716 323.772 256.548 324.516 256.224 325.032C255.888 325.56 255.42 325.812 254.796 325.812ZM262.888 327.156C263.92 327.156 264.736 326.76 265.312 325.968C265.888 325.176 266.188 324.12 266.188 322.8C266.188 321.48 265.888 320.424 265.312 319.632C264.736 318.84 263.92 318.444 262.888 318.444C261.844 318.444 261.028 318.84 260.452 319.632C259.876 320.424 259.588 321.48 259.588 322.8C259.588 324.12 259.876 325.176 260.452 325.968C261.028 326.76 261.844 327.156 262.888 327.156ZM262.888 325.812C262.264 325.812 261.796 325.56 261.46 325.032C261.124 324.516 260.968 323.772 260.968 322.8C260.968 321.84 261.124 321.096 261.46 320.568C261.796 320.052 262.264 319.788 262.888 319.788C263.512 319.788 263.98 320.052 264.316 320.568C264.64 321.096 264.808 321.84 264.808 322.8C264.808 323.772 264.64 324.516 264.316 325.032C263.98 325.56 263.512 325.812 262.888 325.812Z" fill="#122737" fill-opacity="0.3"/>
<path d="M305.237 318.6L303.029 319.38L303.365 320.556L305.057 320.076V327H306.437V318.6H305.237ZM311.651 327.156C312.683 327.156 313.499 326.76 314.075 325.968C314.651 325.176 314.951 324.12 314.951 322.8C314.951 321.48 314.651 320.424 314.075 319.632C313.499 318.84 312.683 318.444 311.651 318.444C310.607 318.444 309.791 318.84 309.215 319.632C308.639 320.424 308.351 321.48 308.351 322.8C308.351 324.12 308.639 325.176 309.215 325.968C309.791 326.76 310.607 327.156 311.651 327.156ZM311.651 325.812C311.027 325.812 310.559 325.56 310.223 325.032C309.887 324.516 309.731 323.772 309.731 322.8C309.731 321.84 309.887 321.096 310.223 320.568C310.559 320.052 311.027 319.788 311.651 319.788C312.275 319.788 312.743 320.052 313.079 320.568C313.403 321.096 313.571 321.84 313.571 322.8C313.571 323.772 313.403 324.516 313.079 325.032C312.743 325.56 312.275 325.812 311.651 325.812ZM317.499 322.644C317.739 322.644 317.955 322.56 318.135 322.38C318.303 322.212 318.399 321.996 318.399 321.744C318.399 321.504 318.303 321.288 318.135 321.108C317.955 320.94 317.739 320.844 317.499 320.844C317.235 320.844 317.019 320.94 316.851 321.108C316.683 321.276 316.599 321.492 316.599 321.744C316.599 321.996 316.683 322.212 316.863 322.38C317.031 322.56 317.247 322.644 317.499 322.644ZM317.499 327.144C317.739 327.144 317.955 327.06 318.135 326.88C318.303 326.712 318.399 326.496 318.399 326.244C318.399 326.004 318.303 325.788 318.135 325.608C317.955 325.44 317.739 325.344 317.499 325.344C317.235 325.344 317.019 325.44 316.851 325.608C316.683 325.788 316.599 326.004 316.599 326.244C316.599 326.496 316.683 326.712 316.863 326.88C317.031 327.06 317.247 327.144 317.499 327.144ZM323.563 322.032L325.267 319.776V318.6H320.107V319.896H323.623L321.811 322.284L322.363 323.112H322.675C323.155 323.112 323.527 323.232 323.815 323.472C324.091 323.712 324.235 324.048 324.235 324.456C324.235 324.876 324.091 325.212 323.815 325.452C323.527 325.692 323.155 325.812 322.675 325.812C321.823 325.812 321.271 325.452 321.031 324.732L319.855 325.416C320.071 325.992 320.443 326.424 320.947 326.712C321.451 327.012 322.027 327.156 322.675 327.156C323.491 327.156 324.187 326.916 324.763 326.436C325.327 325.956 325.615 325.296 325.615 324.456C325.615 323.832 325.423 323.304 325.039 322.884C324.655 322.464 324.163 322.176 323.563 322.032ZM330.349 327.156C331.381 327.156 332.197 326.76 332.773 325.968C333.349 325.176 333.649 324.12 333.649 322.8C333.649 321.48 333.349 320.424 332.773 319.632C332.197 318.84 331.381 318.444 330.349 318.444C329.305 318.444 328.489 318.84 327.913 319.632C327.337 320.424 327.049 321.48 327.049 322.8C327.049 324.12 327.337 325.176 327.913 325.968C328.489 326.76 329.305 327.156 330.349 327.156ZM330.349 325.812C329.725 325.812 329.257 325.56 328.921 325.032C328.585 324.516 328.429 323.772 328.429 322.8C328.429 321.84 328.585 321.096 328.921 320.568C329.257 320.052 329.725 319.788 330.349 319.788C330.973 319.788 331.441 320.052 331.777 320.568C332.101 321.096 332.269 321.84 332.269 322.8C332.269 323.772 332.101 324.516 331.777 325.032C331.441 325.56 330.973 325.812 330.349 325.812Z" fill="#122737" fill-opacity="0.3"/>
<path d="M373.245 318.6L371.037 319.38L371.373 320.556L373.065 320.076V327H374.445V318.6H373.245ZM378.243 318.6L376.035 319.38L376.371 320.556L378.063 320.076V327H379.443V318.6H378.243ZM382.413 322.644C382.653 322.644 382.869 322.56 383.049 322.38C383.217 322.212 383.313 321.996 383.313 321.744C383.313 321.504 383.217 321.288 383.049 321.108C382.869 320.94 382.653 320.844 382.413 320.844C382.149 320.844 381.933 320.94 381.765 321.108C381.597 321.276 381.513 321.492 381.513 321.744C381.513 321.996 381.597 322.212 381.777 322.38C381.945 322.56 382.161 322.644 382.413 322.644ZM382.413 327.144C382.653 327.144 382.869 327.06 383.049 326.88C383.217 326.712 383.313 326.496 383.313 326.244C383.313 326.004 383.217 325.788 383.049 325.608C382.869 325.44 382.653 325.344 382.413 325.344C382.149 325.344 381.933 325.44 381.765 325.608C381.597 325.788 381.513 326.004 381.513 326.244C381.513 326.496 381.597 326.712 381.777 326.88C381.945 327.06 382.161 327.144 382.413 327.144ZM388.249 327.156C389.281 327.156 390.097 326.76 390.673 325.968C391.249 325.176 391.549 324.12 391.549 322.8C391.549 321.48 391.249 320.424 390.673 319.632C390.097 318.84 389.281 318.444 388.249 318.444C387.205 318.444 386.389 318.84 385.813 319.632C385.237 320.424 384.949 321.48 384.949 322.8C384.949 324.12 385.237 325.176 385.813 325.968C386.389 326.76 387.205 327.156 388.249 327.156ZM388.249 325.812C387.625 325.812 387.157 325.56 386.821 325.032C386.485 324.516 386.329 323.772 386.329 322.8C386.329 321.84 386.485 321.096 386.821 320.568C387.157 320.052 387.625 319.788 388.249 319.788C388.873 319.788 389.341 320.052 389.677 320.568C390.001 321.096 390.169 321.84 390.169 322.8C390.169 323.772 390.001 324.516 389.677 325.032C389.341 325.56 388.873 325.812 388.249 325.812ZM396.341 327.156C397.373 327.156 398.189 326.76 398.765 325.968C399.341 325.176 399.641 324.12 399.641 322.8C399.641 321.48 399.341 320.424 398.765 319.632C398.189 318.84 397.373 318.444 396.341 318.444C395.297 318.444 394.481 318.84 393.905 319.632C393.329 320.424 393.041 321.48 393.041 322.8C393.041 324.12 393.329 325.176 393.905 325.968C394.481 326.76 395.297 327.156 396.341 327.156ZM396.341 325.812C395.717 325.812 395.249 325.56 394.913 325.032C394.577 324.516 394.421 323.772 394.421 322.8C394.421 321.84 394.577 321.096 394.913 320.568C395.249 320.052 395.717 319.788 396.341 319.788C396.965 319.788 397.433 320.052 397.769 320.568C398.093 321.096 398.261 321.84 398.261 322.8C398.261 323.772 398.093 324.516 397.769 325.032C397.433 325.56 396.965 325.812 396.341 325.812Z" fill="#122737" fill-opacity="0.3"/>
<path d="M446.784 318.6L444.576 319.38L444.912 320.556L446.604 320.076V327H447.984V318.6H446.784ZM451.782 318.6L449.574 319.38L449.91 320.556L451.602 320.076V327H452.982V318.6H451.782ZM455.952 322.644C456.192 322.644 456.408 322.56 456.588 322.38C456.756 322.212 456.852 321.996 456.852 321.744C456.852 321.504 456.756 321.288 456.588 321.108C456.408 320.94 456.192 320.844 455.952 320.844C455.688 320.844 455.472 320.94 455.304 321.108C455.136 321.276 455.052 321.492 455.052 321.744C455.052 321.996 455.136 322.212 455.316 322.38C455.484 322.56 455.7 322.644 455.952 322.644ZM455.952 327.144C456.192 327.144 456.408 327.06 456.588 326.88C456.756 326.712 456.852 326.496 456.852 326.244C456.852 326.004 456.756 325.788 456.588 325.608C456.408 325.44 456.192 325.344 455.952 325.344C455.688 325.344 455.472 325.44 455.304 325.608C455.136 325.788 455.052 326.004 455.052 326.244C455.052 326.496 455.136 326.712 455.316 326.88C455.484 327.06 455.7 327.144 455.952 327.144ZM462.016 322.032L463.72 319.776V318.6H458.56V319.896H462.076L460.264 322.284L460.816 323.112H461.128C461.608 323.112 461.98 323.232 462.268 323.472C462.544 323.712 462.688 324.048 462.688 324.456C462.688 324.876 462.544 325.212 462.268 325.452C461.98 325.692 461.608 325.812 461.128 325.812C460.276 325.812 459.724 325.452 459.484 324.732L458.308 325.416C458.524 325.992 458.896 326.424 459.4 326.712C459.904 327.012 460.48 327.156 461.128 327.156C461.944 327.156 462.64 326.916 463.216 326.436C463.78 325.956 464.068 325.296 464.068 324.456C464.068 323.832 463.876 323.304 463.492 322.884C463.108 322.464 462.616 322.176 462.016 322.032ZM468.802 327.156C469.834 327.156 470.65 326.76 471.226 325.968C471.802 325.176 472.102 324.12 472.102 322.8C472.102 321.48 471.802 320.424 471.226 319.632C470.65 318.84 469.834 318.444 468.802 318.444C467.758 318.444 466.942 318.84 466.366 319.632C465.79 320.424 465.502 321.48 465.502 322.8C465.502 324.12 465.79 325.176 466.366 325.968C466.942 326.76 467.758 327.156 468.802 327.156ZM468.802 325.812C468.178 325.812 467.71 325.56 467.374 325.032C467.038 324.516 466.882 323.772 466.882 322.8C466.882 321.84 467.038 321.096 467.374 320.568C467.71 320.052 468.178 319.788 468.802 319.788C469.426 319.788 469.894 320.052 470.23 320.568C470.554 321.096 470.722 321.84 470.722 322.8C470.722 323.772 470.554 324.516 470.23 325.032C469.894 325.56 469.426 325.812 468.802 325.812Z" fill="#122737" fill-opacity="0.3"/>
<path d="M529.24 321.312C529.24 320.472 528.964 319.776 528.412 319.248C527.86 318.72 527.14 318.444 526.276 318.444C525.4 318.444 524.68 318.72 524.128 319.248C523.576 319.776 523.3 320.472 523.3 321.312C523.3 322.164 523.576 322.86 524.128 323.388C524.68 323.916 525.4 324.18 526.276 324.18H526.42L524.5 327H526.084L528.736 323.004C529.072 322.524 529.24 321.96 529.24 321.312ZM524.68 321.312C524.68 320.844 524.824 320.472 525.124 320.184C525.424 319.896 525.808 319.752 526.276 319.752C526.732 319.752 527.116 319.896 527.416 320.184C527.704 320.472 527.86 320.844 527.86 321.312C527.86 321.792 527.704 322.164 527.416 322.452C527.116 322.74 526.732 322.872 526.276 322.872C525.808 322.872 525.424 322.728 525.124 322.44C524.824 322.152 524.68 321.78 524.68 321.312Z" fill="#122737" fill-opacity="0.3"/>
<path d="M596.24 321.312C596.24 320.472 595.964 319.776 595.412 319.248C594.86 318.72 594.14 318.444 593.276 318.444C592.4 318.444 591.68 318.72 591.128 319.248C590.576 319.776 590.3 320.472 590.3 321.312C590.3 322.164 590.576 322.86 591.128 323.388C591.68 323.916 592.4 324.18 593.276 324.18H593.42L591.5 327H593.084L595.736 323.004C596.072 322.524 596.24 321.96 596.24 321.312ZM591.68 321.312C591.68 320.844 591.824 320.472 592.124 320.184C592.424 319.896 592.808 319.752 593.276 319.752C593.732 319.752 594.116 319.896 594.416 320.184C594.704 320.472 594.86 320.844 594.86 321.312C594.86 321.792 594.704 322.164 594.416 322.452C594.116 322.74 593.732 322.872 593.276 322.872C592.808 322.872 592.424 322.728 592.124 322.44C591.824 322.152 591.68 321.78 591.68 321.312Z" fill="#122737" fill-opacity="0.3"/>
<path d="M667.24 321.312C667.24 320.472 666.964 319.776 666.412 319.248C665.86 318.72 665.14 318.444 664.276 318.444C663.4 318.444 662.68 318.72 662.128 319.248C661.576 319.776 661.3 320.472 661.3 321.312C661.3 322.164 661.576 322.86 662.128 323.388C662.68 323.916 663.4 324.18 664.276 324.18H664.42L662.5 327H664.084L666.736 323.004C667.072 322.524 667.24 321.96 667.24 321.312ZM662.68 321.312C662.68 320.844 662.824 320.472 663.124 320.184C663.424 319.896 663.808 319.752 664.276 319.752C664.732 319.752 665.116 319.896 665.416 320.184C665.704 320.472 665.86 320.844 665.86 321.312C665.86 321.792 665.704 322.164 665.416 322.452C665.116 322.74 664.732 322.872 664.276 322.872C663.808 322.872 663.424 322.728 663.124 322.44C662.824 322.152 662.68 321.78 662.68 321.312Z" fill="#122737" fill-opacity="0.3"/>
<path d="M738.24 321.312C738.24 320.472 737.964 319.776 737.412 319.248C736.86 318.72 736.14 318.444 735.276 318.444C734.4 318.444 733.68 318.72 733.128 319.248C732.576 319.776 732.3 320.472 732.3 321.312C732.3 322.164 732.576 322.86 733.128 323.388C733.68 323.916 734.4 324.18 735.276 324.18H735.42L733.5 327H735.084L737.736 323.004C738.072 322.524 738.24 321.96 738.24 321.312ZM733.68 321.312C733.68 320.844 733.824 320.472 734.124 320.184C734.424 319.896 734.808 319.752 735.276 319.752C735.732 319.752 736.116 319.896 736.416 320.184C736.704 320.472 736.86 320.844 736.86 321.312C736.86 321.792 736.704 322.164 736.416 322.452C736.116 322.74 735.732 322.872 735.276 322.872C734.808 322.872 734.424 322.728 734.124 322.44C733.824 322.152 733.68 321.78 733.68 321.312Z" fill="#122737" fill-opacity="0.3"/>
<path d="M805.24 321.312C805.24 320.472 804.964 319.776 804.412 319.248C803.86 318.72 803.14 318.444 802.276 318.444C801.4 318.444 800.68 318.72 800.128 319.248C799.576 319.776 799.3 320.472 799.3 321.312C799.3 322.164 799.576 322.86 800.128 323.388C800.68 323.916 801.4 324.18 802.276 324.18H802.42L800.5 327H802.084L804.736 323.004C805.072 322.524 805.24 321.96 805.24 321.312ZM800.68 321.312C800.68 320.844 800.824 320.472 801.124 320.184C801.424 319.896 801.808 319.752 802.276 319.752C802.732 319.752 803.116 319.896 803.416 320.184C803.704 320.472 803.86 320.844 803.86 321.312C803.86 321.792 803.704 322.164 803.416 322.452C803.116 322.74 802.732 322.872 802.276 322.872C801.808 322.872 801.424 322.728 801.124 322.44C800.824 322.152 800.68 321.78 800.68 321.312Z" fill="#122737" fill-opacity="0.3"/>
<path d="M876.24 321.312C876.24 320.472 875.964 319.776 875.412 319.248C874.86 318.72 874.14 318.444 873.276 318.444C872.4 318.444 871.68 318.72 871.128 319.248C870.576 319.776 870.3 320.472 870.3 321.312C870.3 322.164 870.576 322.86 871.128 323.388C871.68 323.916 872.4 324.18 873.276 324.18H873.42L871.5 327H873.084L875.736 323.004C876.072 322.524 876.24 321.96 876.24 321.312ZM871.68 321.312C871.68 320.844 871.824 320.472 872.124 320.184C872.424 319.896 872.808 319.752 873.276 319.752C873.732 319.752 874.116 319.896 874.416 320.184C874.704 320.472 874.86 320.844 874.86 321.312C874.86 321.792 874.704 322.164 874.416 322.452C874.116 322.74 873.732 322.872 873.276 322.872C872.808 322.872 872.424 322.728 872.124 322.44C871.824 322.152 871.68 321.78 871.68 321.312Z" fill="#122737" fill-opacity="0.3"/>
<path d="M943.24 321.312C943.24 320.472 942.964 319.776 942.412 319.248C941.86 318.72 941.14 318.444 940.276 318.444C939.4 318.444 938.68 318.72 938.128 319.248C937.576 319.776 937.3 320.472 937.3 321.312C937.3 322.164 937.576 322.86 938.128 323.388C938.68 323.916 939.4 324.18 940.276 324.18H940.42L938.5 327H940.084L942.736 323.004C943.072 322.524 943.24 321.96 943.24 321.312ZM938.68 321.312C938.68 320.844 938.824 320.472 939.124 320.184C939.424 319.896 939.808 319.752 940.276 319.752C940.732 319.752 941.116 319.896 941.416 320.184C941.704 320.472 941.86 320.844 941.86 321.312C941.86 321.792 941.704 322.164 941.416 322.452C941.116 322.74 940.732 322.872 940.276 322.872C939.808 322.872 939.424 322.728 939.124 322.44C938.824 322.152 938.68 321.78 938.68 321.312Z" fill="#122737" fill-opacity="0.3"/>
<path d="M1014.24 321.312C1014.24 320.472 1013.96 319.776 1013.41 319.248C1012.86 318.72 1012.14 318.444 1011.28 318.444C1010.4 318.444 1009.68 318.72 1009.13 319.248C1008.58 319.776 1008.3 320.472 1008.3 321.312C1008.3 322.164 1008.58 322.86 1009.13 323.388C1009.68 323.916 1010.4 324.18 1011.28 324.18H1011.42L1009.5 327H1011.08L1013.74 323.004C1014.07 322.524 1014.24 321.96 1014.24 321.312ZM1009.68 321.312C1009.68 320.844 1009.82 320.472 1010.12 320.184C1010.42 319.896 1010.81 319.752 1011.28 319.752C1011.73 319.752 1012.12 319.896 1012.42 320.184C1012.7 320.472 1012.86 320.844 1012.86 321.312C1012.86 321.792 1012.7 322.164 1012.42 322.452C1012.12 322.74 1011.73 322.872 1011.28 322.872C1010.81 322.872 1010.42 322.728 1010.12 322.44C1009.82 322.152 1009.68 321.78 1009.68 321.312Z" fill="#122737" fill-opacity="0.3"/>
<path d="M1085.24 321.312C1085.24 320.472 1084.96 319.776 1084.41 319.248C1083.86 318.72 1083.14 318.444 1082.28 318.444C1081.4 318.444 1080.68 318.72 1080.13 319.248C1079.58 319.776 1079.3 320.472 1079.3 321.312C1079.3 322.164 1079.58 322.86 1080.13 323.388C1080.68 323.916 1081.4 324.18 1082.28 324.18H1082.42L1080.5 327H1082.08L1084.74 323.004C1085.07 322.524 1085.24 321.96 1085.24 321.312ZM1080.68 321.312C1080.68 320.844 1080.82 320.472 1081.12 320.184C1081.42 319.896 1081.81 319.752 1082.28 319.752C1082.73 319.752 1083.12 319.896 1083.42 320.184C1083.7 320.472 1083.86 320.844 1083.86 321.312C1083.86 321.792 1083.7 322.164 1083.42 322.452C1083.12 322.74 1082.73 322.872 1082.28 322.872C1081.81 322.872 1081.42 322.728 1081.12 322.44C1080.82 322.152 1080.68 321.78 1080.68 321.312Z" fill="#122737" fill-opacity="0.3"/>
<path d="M1198.37 245H1203.9V243.668H1200.42L1202.32 241.772C1203.27 240.812 1203.75 239.9 1203.75 239.036C1203.75 238.244 1203.48 237.608 1202.96 237.14C1202.43 236.684 1201.79 236.444 1201.06 236.444C1200.47 236.444 1199.94 236.588 1199.46 236.876C1198.98 237.164 1198.61 237.596 1198.35 238.148L1199.51 238.832C1199.85 238.136 1200.36 237.788 1201.07 237.788C1201.44 237.788 1201.76 237.908 1202 238.136C1202.24 238.364 1202.37 238.676 1202.37 239.084C1202.37 239.612 1202.01 240.224 1201.3 240.932L1198.37 243.92V245ZM1210.94 245L1208.21 241.94L1210.85 239H1209.26L1206.94 241.652V236.6H1205.64V245H1206.94V242.228L1209.4 245H1210.94Z" fill="#122737" fill-opacity="0.3"/>
<path d="M1200.36 293.6L1198.16 294.38L1198.49 295.556L1200.18 295.076V302H1201.56V293.6H1200.36ZM1209.06 302L1206.32 298.94L1208.96 296H1207.38L1205.05 298.652V293.6H1203.75V302H1205.05V299.228L1207.51 302H1209.06Z" fill="#122737" fill-opacity="0.3"/>
<path d="M56 302H1186" stroke="black" stroke-opacity="0.07"/>
<path d="M56 243H1186" stroke="black" stroke-opacity="0.07"/>
<path d="M247 302L247 309" stroke="black" stroke-opacity="0.07"/>
<path d="M318 302L318 309" stroke="black" stroke-opacity="0.07"/>
<path d="M385 302L385 309" stroke="black" stroke-opacity="0.07"/>
<path d="M456 302L456 309" stroke="black" stroke-opacity="0.07"/>
<path d="M527 302L527 309" stroke="black" stroke-opacity="0.07"/>
<path d="M594 302L594 309" stroke="black" stroke-opacity="0.07"/>
<path d="M665 302L665 309" stroke="black" stroke-opacity="0.07"/>
<path d="M736 302L736 309" stroke="black" stroke-opacity="0.07"/>
<path d="M803 302L803 309" stroke="black" stroke-opacity="0.07"/>
<path d="M874 302L874 309" stroke="black" stroke-opacity="0.07"/>
<path d="M941 302L941 309" stroke="black" stroke-opacity="0.07"/>
<path d="M1012 302L1012 309" stroke="black" stroke-opacity="0.07"/>
<path d="M1083 302L1083 309" stroke="black" stroke-opacity="0.07"/>
<path d="M56 185H1186" stroke="black" stroke-opacity="0.07"/>
<path d="M56 126H1186" stroke="black" stroke-opacity="0.07"/>
<path d="M616 167L616 302" stroke="black" stroke-opacity="0.07"/>
<circle cx="616.5" cy="159.5" r="15.5" fill="white"/>
<circle cx="616.5" cy="159.5" r="15" stroke="black" stroke-opacity="0.07"/>
<circle cx="616.5" cy="159.5" r="7.75" fill="#3C57DE"/>
<circle cx="1073.5" cy="128.5" r="5" fill="white" stroke="#3C57DE"/>
<circle cx="219.5" cy="228.5" r="5" fill="white" stroke="#3C57DE"/>
<g filter="url(#filter1_d)">
<path fill-rule="evenodd" clip-rule="evenodd" d="M616.334 116H688.667C691.981 116 694.667 113.314 694.667 110V75C694.667 71.6863 691.981 69 688.667 69H616.334V116Z" fill="#3C57DE"/>
<path fill-rule="evenodd" clip-rule="evenodd" d="M616.333 69V116H544C540.686 116 538 113.314 538 110V75C538 71.6863 540.686 69 544 69H616.333Z" fill="#4966F2"/>
</g>
<path d="M172.18 374L171.676 372.488H168.328L167.824 374H166.036L168.976 365.6H171.028L173.98 374H172.18ZM168.856 370.94H171.16L170.008 367.508L168.856 370.94ZM179.158 368H180.706V374H179.158V373.328C178.782 373.888 178.186 374.168 177.37 374.168C176.714 374.168 176.17 373.948 175.738 373.508C175.314 373.068 175.102 372.46 175.102 371.684V368H176.65V371.492C176.65 371.892 176.758 372.2 176.974 372.416C177.19 372.624 177.478 372.728 177.838 372.728C178.238 372.728 178.558 372.604 178.798 372.356C179.038 372.108 179.158 371.736 179.158 371.24V368ZM187.205 365.6H188.753V374H187.205V373.292C186.749 373.876 186.101 374.168 185.261 374.168C184.453 374.168 183.761 373.864 183.185 373.256C182.617 372.64 182.333 371.888 182.333 371C182.333 370.112 182.617 369.364 183.185 368.756C183.761 368.14 184.453 367.832 185.261 367.832C186.101 367.832 186.749 368.124 187.205 368.708V365.6ZM184.349 372.224C184.669 372.536 185.069 372.692 185.549 372.692C186.029 372.692 186.425 372.536 186.737 372.224C187.049 371.904 187.205 371.496 187.205 371C187.205 370.504 187.049 370.1 186.737 369.788C186.425 369.468 186.029 369.308 185.549 369.308C185.069 369.308 184.669 369.468 184.349 369.788C184.037 370.1 183.881 370.504 183.881 371C183.881 371.496 184.037 371.904 184.349 372.224ZM191.471 367.28C191.215 367.28 190.991 367.188 190.799 367.004C190.615 366.812 190.523 366.588 190.523 366.332C190.523 366.076 190.615 365.852 190.799 365.66C190.991 365.468 191.215 365.372 191.471 365.372C191.735 365.372 191.959 365.468 192.143 365.66C192.335 365.852 192.431 366.076 192.431 366.332C192.431 366.588 192.335 366.812 192.143 367.004C191.959 367.188 191.735 367.28 191.471 367.28ZM190.703 374V368H192.251V374H190.703ZM195.509 371.636C195.717 372.388 196.281 372.764 197.201 372.764C197.793 372.764 198.241 372.564 198.545 372.164L199.793 372.884C199.201 373.74 198.329 374.168 197.177 374.168C196.185 374.168 195.389 373.868 194.789 373.268C194.189 372.668 193.889 371.912 193.889 371C193.889 370.096 194.185 369.344 194.777 368.744C195.369 368.136 196.129 367.832 197.057 367.832C197.937 367.832 198.661 368.136 199.229 368.744C199.805 369.352 200.093 370.104 200.093 371C200.093 371.2 200.073 371.412 200.033 371.636H195.509ZM195.485 370.436H198.545C198.457 370.028 198.273 369.724 197.993 369.524C197.721 369.324 197.409 369.224 197.057 369.224C196.641 369.224 196.297 369.332 196.025 369.548C195.753 369.756 195.573 370.052 195.485 370.436ZM205.043 367.832C205.699 367.832 206.239 368.052 206.663 368.492C207.095 368.932 207.311 369.54 207.311 370.316V374H205.763V370.508C205.763 370.108 205.655 369.804 205.439 369.596C205.223 369.38 204.935 369.272 204.575 369.272C204.175 369.272 203.855 369.396 203.615 369.644C203.375 369.892 203.255 370.264 203.255 370.76V374H201.707V368H203.255V368.672C203.631 368.112 204.227 367.832 205.043 367.832ZM212.022 374.168C211.118 374.168 210.362 373.864 209.754 373.256C209.154 372.648 208.854 371.896 208.854 371C208.854 370.104 209.154 369.352 209.754 368.744C210.362 368.136 211.118 367.832 212.022 367.832C212.606 367.832 213.138 367.972 213.618 368.252C214.098 368.532 214.462 368.908 214.71 369.38L213.378 370.16C213.258 369.912 213.074 369.716 212.826 369.572C212.586 369.428 212.314 369.356 212.01 369.356C211.546 369.356 211.162 369.512 210.858 369.824C210.554 370.128 210.402 370.52 210.402 371C210.402 371.472 210.554 371.864 210.858 372.176C211.162 372.48 211.546 372.632 212.01 372.632C212.322 372.632 212.598 372.564 212.838 372.428C213.086 372.284 213.27 372.088 213.39 371.84L214.734 372.608C214.47 373.08 214.098 373.46 213.618 373.748C213.138 374.028 212.606 374.168 212.022 374.168ZM217.3 371.636C217.508 372.388 218.072 372.764 218.992 372.764C219.584 372.764 220.032 372.564 220.336 372.164L221.584 372.884C220.992 373.74 220.12 374.168 218.968 374.168C217.976 374.168 217.18 373.868 216.58 373.268C215.98 372.668 215.68 371.912 215.68 371C215.68 370.096 215.976 369.344 216.568 368.744C217.16 368.136 217.92 367.832 218.848 367.832C219.728 367.832 220.452 368.136 221.02 368.744C221.596 369.352 221.884 370.104 221.884 371C221.884 371.2 221.864 371.412 221.824 371.636H217.3ZM217.276 370.436H220.336C220.248 370.028 220.064 369.724 219.784 369.524C219.512 369.324 219.2 369.224 218.848 369.224C218.432 369.224 218.088 369.332 217.816 369.548C217.544 369.756 217.364 370.052 217.276 370.436ZM232.143 373.256C231.527 373.864 230.775 374.168 229.887 374.168C228.999 374.168 228.247 373.864 227.631 373.256C227.023 372.64 226.719 371.888 226.719 371C226.719 370.112 227.023 369.364 227.631 368.756C228.247 368.14 228.999 367.832 229.887 367.832C230.775 367.832 231.527 368.14 232.143 368.756C232.759 369.364 233.067 370.112 233.067 371C233.067 371.888 232.759 372.64 232.143 373.256ZM228.723 372.188C229.035 372.5 229.423 372.656 229.887 372.656C230.351 372.656 230.739 372.5 231.051 372.188C231.363 371.876 231.519 371.48 231.519 371C231.519 370.52 231.363 370.124 231.051 369.812C230.739 369.5 230.351 369.344 229.887 369.344C229.423 369.344 229.035 369.5 228.723 369.812C228.419 370.124 228.267 370.52 228.267 371C228.267 371.48 228.419 371.876 228.723 372.188ZM238.403 368H240.107L237.827 374H236.063L233.783 368H235.487L236.939 372.2L238.403 368ZM242.461 371.636C242.669 372.388 243.233 372.764 244.153 372.764C244.745 372.764 245.193 372.564 245.497 372.164L246.745 372.884C246.153 373.74 245.281 374.168 244.129 374.168C243.137 374.168 242.341 373.868 241.741 373.268C241.141 372.668 240.841 371.912 240.841 371C240.841 370.096 241.137 369.344 241.729 368.744C242.321 368.136 243.081 367.832 244.009 367.832C244.889 367.832 245.613 368.136 246.181 368.744C246.757 369.352 247.045 370.104 247.045 371C247.045 371.2 247.025 371.412 246.985 371.636H242.461ZM242.437 370.436H245.497C245.409 370.028 245.225 369.724 244.945 369.524C244.673 369.324 244.361 369.224 244.009 369.224C243.593 369.224 243.249 369.332 242.977 369.548C242.705 369.756 242.525 370.052 242.437 370.436ZM250.207 369.032C250.351 368.648 250.587 368.36 250.915 368.168C251.251 367.976 251.623 367.88 252.031 367.88V369.608C251.559 369.552 251.135 369.648 250.759 369.896C250.391 370.144 250.207 370.556 250.207 371.132V374H248.659V368H250.207V369.032ZM257.417 368H259.121L256.841 374H255.077L252.797 368H254.501L255.953 372.2L257.417 368ZM261.169 367.28C260.913 367.28 260.689 367.188 260.497 367.004C260.313 366.812 260.221 366.588 260.221 366.332C260.221 366.076 260.313 365.852 260.497 365.66C260.689 365.468 260.913 365.372 261.169 365.372C261.433 365.372 261.657 365.468 261.841 365.66C262.033 365.852 262.129 366.076 262.129 366.332C262.129 366.588 262.033 366.812 261.841 367.004C261.657 367.188 261.433 367.28 261.169 367.28ZM260.401 374V368H261.949V374H260.401ZM265.207 371.636C265.415 372.388 265.979 372.764 266.899 372.764C267.491 372.764 267.939 372.564 268.243 372.164L269.491 372.884C268.899 373.74 268.027 374.168 266.875 374.168C265.883 374.168 265.087 373.868 264.487 373.268C263.887 372.668 263.587 371.912 263.587 371C263.587 370.096 263.883 369.344 264.475 368.744C265.067 368.136 265.827 367.832 266.755 367.832C267.635 367.832 268.359 368.136 268.927 368.744C269.503 369.352 269.791 370.104 269.791 371C269.791 371.2 269.771 371.412 269.731 371.636H265.207ZM265.183 370.436H268.243C268.155 370.028 267.971 369.724 267.691 369.524C267.419 369.324 267.107 369.224 266.755 369.224C266.339 369.224 265.995 369.332 265.723 369.548C265.451 369.756 265.271 370.052 265.183 370.436ZM277.927 368H279.571L277.663 374H276.187L275.083 370.364L273.979 374H272.503L270.595 368H272.239L273.259 371.684L274.351 368H275.815L276.907 371.696L277.927 368Z" fill="#122737" fill-opacity="0.5"/>
<path d="M293.916 369.843L288.303 366.034C288.244 365.993 288.167 365.989 288.104 366.022C288.04 366.055 288 366.119 288 366.19V373.81C288 373.88 288.04 373.945 288.104 373.978C288.132 373.993 288.163 374 288.194 374C288.232 374 288.27 373.989 288.303 373.966L293.916 370.157C293.969 370.121 294 370.063 294 370C294 369.937 293.969 369.879 293.916 369.843Z" fill="#3C57DE"/>
<path d="M561.593 91.566L564.329 87.876V86.4H556.769V87.966H562.367L559.451 91.908L560.117 92.934H560.549C561.323 92.934 561.953 93.15 562.457 93.564C562.943 93.978 563.195 94.554 563.195 95.274C563.195 96.012 562.943 96.588 562.457 96.984C561.953 97.398 561.323 97.596 560.549 97.596C559.091 97.596 558.173 97.02 557.813 95.85L556.409 96.678C556.715 97.506 557.237 98.154 557.993 98.586C558.731 99.018 559.577 99.234 560.549 99.234C561.737 99.234 562.763 98.892 563.609 98.172C564.437 97.47 564.869 96.498 564.869 95.274C564.869 94.284 564.563 93.456 563.951 92.808C563.339 92.16 562.547 91.746 561.593 91.566ZM570.755 91.314H568.919L569.135 87.966H574.517V86.4H567.623L567.155 92.934H570.719C571.475 92.934 572.105 93.15 572.609 93.564C573.095 93.978 573.347 94.554 573.347 95.274C573.347 96.012 573.095 96.588 572.609 96.984C572.105 97.398 571.475 97.596 570.683 97.596C569.981 97.596 569.387 97.452 568.919 97.128C568.433 96.804 568.109 96.336 567.947 95.724L566.525 96.534C566.813 97.416 567.353 98.082 568.109 98.55C568.865 99.018 569.711 99.234 570.683 99.234C571.871 99.234 572.897 98.892 573.743 98.172C574.571 97.47 575.003 96.498 575.003 95.274C575.003 94.05 574.589 93.078 573.761 92.376C572.933 91.674 571.943 91.314 570.755 91.314ZM581.556 99.234C583.086 99.234 584.274 98.64 585.138 97.452C585.984 96.264 586.416 94.68 586.416 92.7C586.416 90.72 585.984 89.136 585.138 87.948C584.274 86.76 583.086 86.166 581.556 86.166C580.008 86.166 578.82 86.76 577.974 87.948C577.11 89.136 576.696 90.72 576.696 92.7C576.696 94.68 577.11 96.264 577.974 97.452C578.82 98.64 580.008 99.234 581.556 99.234ZM581.556 97.596C580.53 97.596 579.738 97.182 579.198 96.318C578.64 95.472 578.37 94.266 578.37 92.7C578.37 91.134 578.64 89.928 579.198 89.064C579.738 88.218 580.53 87.786 581.556 87.786C582.564 87.786 583.356 88.218 583.914 89.082C584.472 89.946 584.76 91.152 584.76 92.7C584.76 94.266 584.472 95.472 583.914 96.318C583.356 97.182 582.564 97.596 581.556 97.596ZM593.427 99.234C594.957 99.234 596.145 98.64 597.009 97.452C597.855 96.264 598.287 94.68 598.287 92.7C598.287 90.72 597.855 89.136 597.009 87.948C596.145 86.76 594.957 86.166 593.427 86.166C591.879 86.166 590.691 86.76 589.845 87.948C588.981 89.136 588.567 90.72 588.567 92.7C588.567 94.68 588.981 96.264 589.845 97.452C590.691 98.64 591.879 99.234 593.427 99.234ZM593.427 97.596C592.401 97.596 591.609 97.182 591.069 96.318C590.511 95.472 590.241 94.266 590.241 92.7C590.241 91.134 590.511 89.928 591.069 89.064C591.609 88.218 592.401 87.786 593.427 87.786C594.435 87.786 595.227 88.218 595.785 89.082C596.343 89.946 596.631 91.152 596.631 92.7C596.631 94.266 596.343 95.472 595.785 96.318C595.227 97.182 594.435 97.596 593.427 97.596Z" fill="white"/>
<path d="M652.564 86.4L649.252 87.552L649.666 88.992L652.348 88.2V99H654.004V86.4H652.564ZM656.597 99H664.733V97.38H659.027L662.249 94.176C663.743 92.682 664.499 91.296 664.499 90.018C664.499 88.848 664.103 87.912 663.329 87.21C662.537 86.526 661.619 86.166 660.575 86.166C659.711 86.166 658.937 86.382 658.235 86.796C657.533 87.228 656.993 87.84 656.597 88.65L658.001 89.478C658.541 88.362 659.405 87.786 660.593 87.786C661.205 87.786 661.745 87.984 662.177 88.38C662.609 88.776 662.825 89.334 662.825 90.036C662.825 90.9 662.231 91.908 661.043 93.096L656.597 97.632V99ZM669.633 91.746C670.461 91.746 671.127 91.476 671.667 90.936C672.207 90.396 672.477 89.748 672.477 88.956C672.477 88.182 672.207 87.516 671.667 86.976C671.127 86.436 670.443 86.166 669.633 86.166C668.823 86.166 668.139 86.454 667.599 86.994C667.059 87.534 666.789 88.2 666.789 88.956C666.789 89.748 667.059 90.396 667.599 90.936C668.139 91.476 668.805 91.746 669.633 91.746ZM669.633 90.432C669.201 90.432 668.859 90.306 668.589 90.018C668.319 89.73 668.193 89.388 668.193 88.956C668.193 88.56 668.319 88.218 668.589 87.93C668.859 87.642 669.201 87.498 669.633 87.498C670.047 87.498 670.389 87.642 670.659 87.93C670.929 88.218 671.073 88.56 671.073 88.956C671.073 89.37 670.929 89.712 670.659 90C670.389 90.288 670.047 90.432 669.633 90.432ZM667.635 97.218L668.499 97.722L676.887 88.344L676.005 87.858L667.635 97.218ZM675.069 99.216C675.879 99.216 676.563 98.946 677.103 98.406C677.643 97.866 677.913 97.218 677.913 96.426C677.913 95.652 677.643 94.986 677.103 94.446C676.563 93.906 675.879 93.636 675.069 93.636C674.241 93.636 673.575 93.906 673.035 94.446C672.495 94.986 672.225 95.652 672.225 96.426C672.225 97.218 672.495 97.866 673.035 98.406C673.575 98.946 674.241 99.216 675.069 99.216ZM675.069 97.884C674.637 97.884 674.295 97.758 674.025 97.47C673.755 97.182 673.629 96.84 673.629 96.426C673.629 96.03 673.755 95.688 674.025 95.4C674.295 95.112 674.637 94.968 675.069 94.968C675.483 94.968 675.825 95.112 676.095 95.4C676.365 95.688 676.509 96.03 676.509 96.426C676.509 96.84 676.365 97.182 676.095 97.47C675.825 97.758 675.483 97.884 675.069 97.884Z" fill="white"/>
<path d="M632.12 90.9193C631.96 91.0828 631.96 91.3549 632.12 91.5241C632.275 91.6876 632.533 91.6876 632.688 91.5241L635.595 88.4576L635.595 98.5766C635.596 98.8125 635.773 99 635.997 99C636.221 99 636.404 98.8125 636.404 98.5766L636.404 88.4576L639.306 91.5241C639.467 91.6876 639.725 91.6876 639.88 91.5241C640.04 91.3549 640.04 91.0824 639.88 90.9193L636.284 87.1269C636.129 86.9577 635.871 86.9577 635.716 87.1269L632.12 90.9193Z" fill="#1BC4DB" stroke="#1BC4DB"/>
<defs>
<filter id="filter0_d" x="0" y="0" width="1264" height="437" filterUnits="userSpaceOnUse" color-interpolation-filters="sRGB">
<feFlood flood-opacity="0" result="BackgroundImageFix"/>
<feColorMatrix in="SourceAlpha" type="matrix" values="0 0 0 0 0 0 0 0 0 0 0 0 0 0 0 0 0 0 127 0"/>
<feOffset/>
<feGaussianBlur stdDeviation="14"/>
<feColorMatrix type="matrix" values="0 0 0 0 0.760267 0 0 0 0 0.803463 0 0 0 0 0.875456 0 0 0 0.7 0"/>
<feBlend mode="normal" in2="BackgroundImageFix" result="effect1_dropShadow"/>
<feBlend mode="normal" in="SourceGraphic" in2="effect1_dropShadow" result="shape"/>
</filter>
<filter id="filter1_d" x="524" y="63" width="188.667" height="79" filterUnits="userSpaceOnUse" color-interpolation-filters="sRGB">
<feFlood flood-opacity="0" result="BackgroundImageFix"/>
<feColorMatrix in="SourceAlpha" type="matrix" values="0 0 0 0 0 0 0 0 0 0 0 0 0 0 0 0 0 0 127 0"/>
<feOffset dx="2" dy="10"/>
<feGaussianBlur stdDeviation="8"/>
<feColorMatrix type="matrix" values="0 0 0 0 0 0 0 0 0 0 0 0 0 0 0 0 0 0 0.166 0"/>
<feBlend mode="normal" in2="BackgroundImageFix" result="effect1_dropShadow"/>
<feBlend mode="normal" in="SourceGraphic" in2="effect1_dropShadow" result="shape"/>
</filter>
<linearGradient id="paint0_linear" x1="625.5" y1="154" x2="625.5" y2="301" gradientUnits="userSpaceOnUse">
<stop stop-color="white"/>
<stop offset="1" stop-color="white" stop-opacity="0"/>
</linearGradient>
</defs>
</svg>
