<svg  viewBox="0 0 18 18"  xmlns="http://www.w3.org/2000/svg" id="root">
<path d="M17.2925 13.5476C15.6745 12.1412 14.1772 10.157 14.1772 5.20304C14.1772 2.33406 11.8549 0 9.00031 0C6.14537 0 3.82272 2.33406 3.82272 5.20304C3.82272 10.1615 2.32595 12.1437 0.706532 13.5489C0.257549 13.9419 0 14.5079 0 15.1019C0 15.4288 0.263674 15.6938 0.588908 15.6938H6.17764C6.45027 17.0088 7.61206 18 9 18C10.3879 18 11.5498 17.0089 11.8224 15.6938H17.4111C17.7363 15.6938 18 15.4288 18 15.1019C18 14.5031 17.7418 13.9362 17.2925 13.5476ZM9 16.8162C8.26661 16.8162 7.63994 16.3483 7.39966 15.6938H10.6003C10.3601 16.3483 9.73339 16.8162 9 16.8162ZM1.40977 14.51C1.4312 14.4866 1.45405 14.4644 1.47816 14.4433C3.94709 12.3009 5.00045 9.53749 5.00045 5.20304C5.00045 2.98681 6.79482 1.1838 9.00024 1.1838C11.2053 1.1838 12.9993 2.98681 12.9993 5.20304C12.9993 9.53354 14.0528 12.2969 16.523 14.4439C16.5471 14.4648 16.57 14.4868 16.5915 14.51H1.40977Z"/>
</svg>