<svg  viewBox="0 0 23 22" xmlns="http://www.w3.org/2000/svg" id="root">
<path d="M21.9639 10.5062C22.3671 10.0628 22.3281 9.38311 21.8769 8.98854L11.9365 0.290584C11.4853 -0.103987 10.7619 -0.0957211 10.3202 0.309218L0.345934 9.45228C-0.0957644 9.85722 -0.117443 10.536 0.297936 10.9678L0.548005 11.2282C0.962877 11.66 1.63347 11.7115 2.04486 11.3428L2.79028 10.6753V20.4483C2.79028 21.048 3.27614 21.5334 3.87532 21.5334H7.76331C8.36249 21.5334 8.84834 21.048 8.84834 20.4483V13.6112H13.8075V20.4483C13.7989 21.0475 14.2276 21.5329 14.8268 21.5329H18.9471C19.5463 21.5329 20.0321 21.0475 20.0321 20.4479V10.8129C20.0321 10.8129 20.238 10.9933 20.492 11.2165C20.7456 11.4393 21.2781 11.2607 21.6813 10.8168L21.9639 10.5062Z"/>
</svg>
