<svg  viewBox="0 0 24 24"  xmlns="http://www.w3.org/2000/svg" id="root">
<path d="M22.7715 9.48062L21.087 9.19485C20.9115 8.62832 20.6859 8.08184 20.4102 7.56043L21.4028 6.17168C21.824 5.58008 21.7588 4.7729 21.2424 4.26152L19.7484 2.76748C19.4676 2.48672 19.0966 2.3313 18.7005 2.3313C18.3897 2.3313 18.0939 2.42656 17.8432 2.60705L16.4495 3.59973C15.908 3.31396 15.3415 3.07832 14.7549 2.90284L14.4741 1.23835C14.3538 0.521409 13.7371 0 13.0102 0H10.8995C10.1725 0 9.55582 0.521409 9.4355 1.23835L9.14471 2.94295C8.58319 3.11843 8.03672 3.34905 7.51531 3.62981L6.13658 2.63713C5.88591 2.45664 5.58509 2.36138 5.27425 2.36138C4.87818 2.36138 4.50217 2.5168 4.22642 2.79756L2.72737 4.2916C2.21599 4.80298 2.1458 5.61016 2.56694 6.20176L3.56965 7.61057C3.2939 8.13699 3.07331 8.68347 2.90284 9.25L1.23835 9.53076C0.521409 9.65108 0 10.2677 0 10.9947V13.1054C0 13.8324 0.521409 14.449 1.23835 14.5694L2.94295 14.8602C3.11843 15.4217 3.34905 15.9682 3.62981 16.4896L2.64214 17.8633C2.221 18.4549 2.28618 19.2621 2.80257 19.7734L4.29661 21.2675C4.57737 21.5482 4.94837 21.7036 5.34444 21.7036C5.65528 21.7036 5.95108 21.6084 6.20176 21.4279L7.61057 20.4252C8.11694 20.6909 8.64837 20.9065 9.19485 21.077L9.47561 22.7615C9.59593 23.4784 10.2126 23.9999 10.9396 23.9999H13.0553C13.7822 23.9999 14.3989 23.4784 14.5192 22.7615L14.805 21.077C15.3715 20.9015 15.918 20.6759 16.4394 20.4001L17.8282 21.3928C18.0789 21.5733 18.3797 21.6686 18.6905 21.6686C19.0866 21.6686 19.4576 21.5131 19.7383 21.2324L21.2324 19.7383C21.7438 19.227 21.8139 18.4198 21.3928 17.8282L20.4001 16.4344C20.6759 15.908 20.9065 15.3615 21.077 14.8L22.7615 14.5192C23.4784 14.3989 23.9999 13.7822 23.9999 13.0553V10.9446C24.0099 10.2176 23.4885 9.60094 22.7715 9.48062ZM22.6562 13.0553C22.6562 13.1205 22.6111 13.1756 22.5459 13.1856L20.4402 13.5366C20.1745 13.5817 19.9639 13.7772 19.8988 14.0329C19.7083 14.7699 19.4175 15.4768 19.0264 16.1336C18.8911 16.3642 18.9011 16.65 19.0565 16.8706L20.2948 18.6153C20.3299 18.6654 20.3249 18.7406 20.2798 18.7858L18.7858 20.2798C18.7507 20.3149 18.7156 20.3199 18.6905 20.3199C18.6604 20.3199 18.6354 20.3099 18.6153 20.2948L16.8756 19.0565C16.66 18.9011 16.3692 18.8911 16.1386 19.0264C15.4818 19.4175 14.7749 19.7083 14.0379 19.8988C13.7772 19.9639 13.5817 20.1795 13.5416 20.4402L13.1856 22.5459C13.1756 22.6111 13.1205 22.6562 13.0553 22.6562H10.9446C10.8794 22.6562 10.8243 22.6111 10.8142 22.5459L10.4633 20.4402C10.4182 20.1745 10.2226 19.9639 9.96694 19.8988C9.25 19.7133 8.55813 19.4275 7.91138 19.0565C7.8061 18.9963 7.68577 18.9663 7.57046 18.9663C7.43509 18.9663 7.29471 19.0064 7.1794 19.0916L5.42466 20.34C5.39959 20.355 5.37452 20.365 5.34946 20.365C5.3294 20.365 5.28929 20.36 5.2542 20.3249L3.76016 18.8309C3.71504 18.7858 3.71003 18.7156 3.74512 18.6604L4.97845 16.9308C5.13387 16.7102 5.1439 16.4194 5.00853 16.1887C4.61748 15.537 4.31667 14.8301 4.12615 14.0931C4.05596 13.8374 3.84539 13.6419 3.58469 13.5967L1.46396 13.2358C1.39878 13.2257 1.35366 13.1706 1.35366 13.1054V10.9947C1.35366 10.9295 1.39878 10.8744 1.46396 10.8644L3.55461 10.5134C3.82032 10.4683 4.03591 10.2728 4.10108 10.0121C4.28658 9.27506 4.57236 8.56314 4.9584 7.90637C5.09377 7.67574 5.07872 7.38997 4.9233 7.17439L3.67493 5.41965C3.63984 5.36951 3.64485 5.29431 3.68997 5.24918L5.18401 3.75515C5.2191 3.72005 5.2542 3.71504 5.27927 3.71504C5.30935 3.71504 5.33442 3.72507 5.35447 3.74011L7.08414 4.97344C7.30474 5.12886 7.59553 5.13889 7.82615 5.00352C8.47791 4.61246 9.18482 4.31165 9.92181 4.12114C10.1775 4.05095 10.373 3.84038 10.4182 3.57967L10.7791 1.45894C10.7892 1.39377 10.8443 1.34864 10.9095 1.34864H13.0202C13.0854 1.34864 13.1405 1.39377 13.1505 1.45894L13.5015 3.54959C13.5466 3.81531 13.7421 4.03089 14.0028 4.09607C14.7599 4.28658 15.4818 4.58238 16.1537 4.97845C16.3843 5.11382 16.67 5.10379 16.8906 4.94837L18.6203 3.70501C18.6454 3.68997 18.6705 3.67994 18.6955 3.67994C18.7156 3.67994 18.7557 3.68496 18.7908 3.72005L20.2848 5.21409C20.3299 5.25921 20.335 5.3294 20.2999 5.38455L19.0615 7.12425C18.9061 7.33983 18.8961 7.63062 19.0314 7.86124C19.4225 8.51802 19.7133 9.22493 19.9038 9.96192C19.969 10.2226 20.1845 10.4182 20.4452 10.4583L22.5509 10.8142C22.6161 10.8243 22.6612 10.8794 22.6612 10.9446V13.0553H22.6562Z"/>
<path d="M12.0022 6.81738C9.14451 6.81738 6.82324 9.13866 6.82324 11.9964C6.82324 14.8541 9.14451 17.1754 12.0022 17.1754C14.86 17.1754 17.1812 14.8541 17.1812 11.9964C17.1812 9.13866 14.86 6.81738 12.0022 6.81738ZM12.0022 15.8217C9.89153 15.8217 8.1769 14.1071 8.1769 11.9964C8.1769 9.88567 9.89153 8.17104 12.0022 8.17104C14.1129 8.17104 15.8276 9.88567 15.8276 11.9964C15.8276 14.1071 14.1129 15.8217 12.0022 15.8217Z"/>
</svg>
