<svg viewBox="0 0 24 21"  xmlns="http://www.w3.org/2000/svg" id="root">
<path d="M24 12C24 8.72168 22.6781 5.7467 20.5399 3.57875C20.5232 3.55656 20.5054 3.53485 20.4852 3.51462C20.465 3.4944 20.4434 3.47662 20.4212 3.46001C18.2532 1.32181 15.2782 0 12 0C8.72176 0 5.74678 1.32189 3.57875 3.46001C3.55656 3.47669 3.53492 3.49448 3.5147 3.51462C3.49448 3.53485 3.4767 3.55649 3.46001 3.57875C1.32189 5.7467 0 8.72168 0 12C0 15.2049 1.24792 18.2178 3.51384 20.4843C3.51415 20.4846 3.51447 20.485 3.51478 20.4853C3.51502 20.4855 3.51517 20.4857 3.51541 20.4858C3.51572 20.4862 3.51604 20.4865 3.51635 20.4868C3.63155 20.602 3.78256 20.6595 3.93356 20.6595C4.08464 20.6595 4.23572 20.6019 4.35092 20.4866C4.36076 20.4768 4.36965 20.4663 4.37862 20.4559L6.19727 18.6372C6.42775 18.4067 6.42775 18.033 6.19727 17.8026C5.96679 17.5722 5.5931 17.5722 5.3627 17.8026L3.94348 19.2218C2.28858 17.3802 1.3285 15.0626 1.19646 12.5902H3.20357C3.5295 12.5902 3.79373 12.326 3.79373 12C3.79373 11.674 3.5295 11.4098 3.20357 11.4098H1.19662C1.33385 8.8704 2.35082 6.56121 3.94733 4.78198L5.3627 6.19735C5.4779 6.31255 5.62898 6.37015 5.77999 6.37015C5.93099 6.37015 6.08207 6.31255 6.19727 6.19735C6.42775 5.96679 6.42775 5.59318 6.19727 5.3627L4.78198 3.94725C6.56129 2.35074 8.8704 1.33377 11.4098 1.19662V3.20365C11.4098 3.52965 11.6741 3.79381 12 3.79381C12.3259 3.79381 12.5902 3.52965 12.5902 3.20365V1.19662C15.1296 1.33377 17.4387 2.35082 19.218 3.94733L17.8027 5.3627C17.5722 5.59326 17.5722 5.96687 17.8027 6.19735C17.9179 6.31255 18.0689 6.37015 18.2199 6.37015C18.3709 6.37015 18.522 6.31255 18.6372 6.19735L20.0526 4.78198C21.6491 6.56129 22.6662 8.8704 22.8033 11.4098H20.7963C20.4703 11.4098 20.2061 11.674 20.2061 12C20.2061 12.326 20.4703 12.5902 20.7963 12.5902H22.8034C22.6713 15.0626 21.7113 17.3803 20.0564 19.2219L18.6372 17.8026C18.4068 17.5722 18.0331 17.5722 17.8027 17.8026C17.5722 18.0331 17.5722 18.4067 17.8027 18.6372L19.6507 20.4852C19.7659 20.6004 19.9169 20.658 20.0679 20.658C20.1434 20.658 20.2189 20.6436 20.29 20.6148C20.361 20.586 20.4276 20.5428 20.4853 20.4852C22.7518 18.2187 24 15.2052 24 12Z"/>
<path d="M14.7108 5.23197C14.408 5.11071 14.0647 5.2577 13.9435 5.56033L12.2381 9.81738C12.1586 9.80889 12.0791 9.80306 11.9995 9.80306C11.1689 9.80306 10.4186 10.2632 10.0413 11.0038C9.64692 11.778 9.74795 12.7031 10.3114 13.4781C10.369 13.5574 10.4414 13.6298 10.5211 13.6878C10.9789 14.0206 11.4901 14.1965 11.9995 14.1965C12.8302 14.1965 13.5806 13.7364 13.9578 12.9958C14.3522 12.2216 14.2511 11.2966 13.6881 10.522C13.6305 10.4426 13.558 10.3699 13.4779 10.3116C13.4349 10.2803 13.3909 10.2517 13.3469 10.2233L15.0391 5.99918C15.1603 5.6967 15.0133 5.35315 14.7108 5.23197ZM12.906 12.46C12.7312 12.803 12.3839 13.0161 11.9995 13.0161C11.7474 13.0161 11.4936 12.928 11.2449 12.7543C10.9616 12.3475 10.906 11.9066 11.0931 11.5395C11.2677 11.1965 11.6151 10.9834 11.9995 10.9834C12.1221 10.9834 12.2451 11.0046 12.3677 11.0459C12.3717 11.0476 12.3754 11.0497 12.3795 11.0514C12.3924 11.0565 12.4053 11.0607 12.4183 11.0648C12.5309 11.108 12.6429 11.1675 12.754 11.2451C13.0372 11.6518 13.0929 12.0929 12.906 12.46Z"/>
</svg>
